<svg width="64" height="64" viewBox="0 0 64 64" fill="none" xmlns="http://www.w3.org/2000/svg">
<path fill-rule="evenodd" clip-rule="evenodd" d="M24.7236 43.4058L27.6855 40.4613H50.319V4.94441L53.2809 2V43.4058H24.7236ZM48.6529 38.8049H45.6909V13.7187L11.1988 48.0062H7L48.6529 6.60042V38.8049ZM44.0248 17.7178V21.8773L20.7015 45.0624H53.281V48.0068H13.5548L44.0248 17.7178Z" fill="white"/>
<path fill-rule="evenodd" clip-rule="evenodd" d="M9.3112 59.9455L8.65086 61.8163H7L9.73723 54.1396H11.8674L14.594 61.8163H12.9218L12.2401 59.9455H9.3112ZM9.67334 58.6767H11.878L10.781 55.3652L9.67334 58.6767ZM18.1016 61.8166V54.14H16.4743V61.8166H18.1016ZM23.6724 55.3979V61.8166H22.1553V55.3979H20.1809V54.14H25.6052V55.3979H23.6724ZM29.3111 58.7198V61.8163H27.7555V54.1396H30.7068C32.0706 54.1396 33.3492 54.6557 33.3492 56.2255C33.3492 57.1393 32.8697 57.7307 32.06 58.0102V58.0317C32.5394 58.2038 32.7525 58.494 33.0189 59.4187C33.229 60.1509 33.4304 60.8313 33.6464 61.5604L33.6465 61.5609L33.7221 61.8163H32.0493L31.957 61.4501L31.8266 60.9332L31.7773 60.7382C31.687 60.3817 31.599 60.0371 31.5379 59.8057C31.3035 58.9779 31.1224 58.7198 30.0356 58.7198H29.3111ZM29.311 57.4621H30.3339C31.1863 57.4621 31.7936 57.2256 31.7936 56.4299C31.7936 55.5698 31.0797 55.3978 30.3765 55.3978H29.311V57.4621ZM37.6997 54.14V61.8166H36.0725V54.14H37.6997ZM46.939 58.08C46.939 60.359 45.6865 61.9991 43.4132 61.9991C41.1504 61.9991 39.8875 60.359 39.8875 58.08C39.8875 55.7903 41.1294 54.1396 43.4132 54.1396C45.7076 54.1396 46.939 55.7903 46.939 58.08ZM41.4241 58.0799C41.4241 59.5602 42.0556 60.753 43.4238 60.753C44.8025 60.753 45.4024 59.5602 45.4024 58.0799C45.4024 56.589 44.7815 55.3856 43.4133 55.3856C42.0451 55.3856 41.4241 56.589 41.4241 58.0799ZM53.6666 59.763C53.6666 61.2859 52.3615 61.9994 50.888 61.9994C50.2038 61.9994 49.3408 61.8823 48.604 61.616L48.8777 60.3487C49.5513 60.6256 50.288 60.7534 50.8354 60.7534C51.6668 60.7534 52.13 60.4552 52.13 59.8695C52.13 59.305 51.6774 59.0175 50.6564 58.6128C49.4565 58.1229 48.6251 57.5159 48.6251 56.3444C48.6251 54.7683 49.9933 54.14 51.2669 54.14C51.9931 54.14 52.6878 54.2358 53.2351 54.4169L52.972 55.6629C52.4457 55.4712 51.8773 55.386 51.3616 55.386C50.7512 55.386 50.1617 55.567 50.1617 56.1954C50.1617 56.7278 50.5933 56.9941 51.5826 57.3988C52.8246 57.9206 53.6666 58.4318 53.6666 59.763Z" fill="white"/>
</svg>
